<svg xmlns="http://www.w3.org/2000/svg" style="display:none">
  <defs>
    <g id="owl-base">
      <path d="M32 5c-9.8 0-18 7.7-18 17.5v11.8c0 12.1 8.2 22.1 18 24.7 9.8-2.6 18-12.6 18-24.7V22.5C50 12.7 41.8 5 32 5Z" fill="#facc15"/>
      <path d="M15.8 21.5 9.5 12.8l11.3 3.7M48.2 21.5l6.3-8.7-11.3 3.7" fill="#fde68a"/>
      <path d="M19.5 28.2c0-6.1 5-11.1 11.1-11.1h2.8c6.1 0 11.1 5 11.1 11.1v7.7c0 6.9-5.6 12.5-12.5 12.5s-12.5-5.6-12.5-12.5v-7.7Z" fill="#0f1b2d" opacity=".94"/>
      <circle cx="25.7" cy="29.2" r="6.6" fill="#fff"/>
      <circle cx="38.3" cy="29.2" r="6.6" fill="#fff"/>
      <circle cx="25.7" cy="29.2" r="2.9" fill="#07111f"/>
      <circle cx="38.3" cy="29.2" r="2.9" fill="#07111f"/>
      <path d="M32 34.5 27.8 39h8.4L32 34.5Z" fill="#f97316"/>
    </g>
    <g id="small-crown"><path d="M23 51h18l-2 5H25l-2-5Zm1-6 4 4 4-6 4 6 4-4 1 5H23l1-5Z" fill="#38bdf8"/></g>
  </defs>
  <symbol id="owl-home" viewBox="0 0 64 64"><use href="#owl-base"/><path d="M22 53V43l10-7 10 7v10h-6v-7h-8v7h-6Z" fill="#38bdf8"/></symbol>
  <symbol id="owl-match" viewBox="0 0 64 64"><use href="#owl-base"/><circle cx="32" cy="50" r="8" fill="#fff"/><path d="M32 43.5 36 47l-1.5 5h-5L28 47l4-3.5Zm-6.8 5.2 4.1 2.2M38.8 48.7l-4.1 2.2M30 56.5l1-4.5M34 56.5l-1-4.5" stroke="#07111f" stroke-width="1.6" stroke-linecap="round"/></symbol>
  <symbol id="owl-prono" viewBox="0 0 64 64"><use href="#owl-base"/><path d="M24 44h16v12H24z" fill="#fff"/><path d="M27 48h10M27 52h7" stroke="#07111f" stroke-width="2" stroke-linecap="round"/><path d="M39 41l4 4-9 9-4 1 1-4 8-10Z" fill="#38bdf8"/></symbol>
  <symbol id="owl-trophy" viewBox="0 0 64 64"><use href="#owl-base"/><path d="M25 42h14v5c0 4-3 7-7 7s-7-3-7-7v-5Z" fill="#fff"/><path d="M25 44h-5c0 4 2.5 7 6 7M39 44h5c0 4-2.5 7-6 7" fill="none" stroke="#38bdf8" stroke-width="3" stroke-linecap="round"/><path d="M29 56h6v3h-6z" fill="#38bdf8"/></symbol>
  <symbol id="owl-profile" viewBox="0 0 64 64"><use href="#owl-base"/><circle cx="32" cy="45" r="5" fill="#fff"/><path d="M22 58c1.7-6 5.3-9 10-9s8.3 3 10 9" fill="#38bdf8"/></symbol>
  <symbol id="owl-admin" viewBox="0 0 64 64"><use href="#owl-base"/><path d="M31 43h3l1 4 4 1v3l-4 1-1 4h-3l-1-4-4-1v-3l4-1 1-4Z" fill="#38bdf8"/><circle cx="32.5" cy="49.5" r="2.2" fill="#07111f"/></symbol>
  <symbol id="owl-nest" viewBox="0 0 64 64"><use href="#owl-base"/><path d="M18 52c6 5 22 5 28 0M21 48c5 4 17 4 22 0M24 44c4 3 12 3 16 0" fill="none" stroke="#38bdf8" stroke-width="3" stroke-linecap="round"/></symbol>
  <symbol id="owl-pin" viewBox="0 0 64 64"><use href="#owl-base"/><path d="M32 42c-4 0-7 3-7 7 0 5 7 10 7 10s7-5 7-10c0-4-3-7-7-7Z" fill="#38bdf8"/><circle cx="32" cy="49" r="2.2" fill="#07111f"/></symbol>
  <symbol id="owl-tv" viewBox="0 0 64 64"><use href="#owl-base"/><rect x="22" y="43" width="20" height="13" rx="3" fill="#fff"/><path d="M27 47h10M27 51h6" stroke="#07111f" stroke-width="2" stroke-linecap="round"/><path d="M28 40l4 3 4-3" stroke="#38bdf8" stroke-width="3" stroke-linecap="round"/></symbol>
  <symbol id="owl-lock" viewBox="0 0 64 64"><use href="#owl-base"/><rect x="24" y="47" width="16" height="10" rx="3" fill="#38bdf8"/><path d="M27 47v-3a5 5 0 0 1 10 0v3" fill="none" stroke="#fff" stroke-width="3" stroke-linecap="round"/></symbol>
  <symbol id="owl-target" viewBox="0 0 64 64"><use href="#owl-base"/><circle cx="32" cy="50" r="9" fill="#fff"/><circle cx="32" cy="50" r="5" fill="none" stroke="#38bdf8" stroke-width="3"/><circle cx="32" cy="50" r="2" fill="#07111f"/></symbol>
  <symbol id="owl-check" viewBox="0 0 64 64"><use href="#owl-base"/><path d="M23 50l6 6 13-14" fill="none" stroke="#38bdf8" stroke-width="5" stroke-linecap="round" stroke-linejoin="round"/></symbol>
  <symbol id="owl-trend" viewBox="0 0 64 64"><use href="#owl-base"/><path d="M22 55h20M24 52l6-6 5 4 7-10" fill="none" stroke="#38bdf8" stroke-width="4" stroke-linecap="round" stroke-linejoin="round"/><path d="M41 40h-6M41 40v6" stroke="#38bdf8" stroke-width="4" stroke-linecap="round"/></symbol>
  <symbol id="owl-star" viewBox="0 0 64 64"><use href="#owl-base"/><path d="M32 41l3.2 6.4 7.1 1-5.2 5 1.3 7-6.4-3.4-6.4 3.4 1.3-7-5.2-5 7.1-1L32 41Z" fill="#38bdf8"/></symbol>
  <symbol id="owl-list" viewBox="0 0 64 64"><use href="#owl-base"/><path d="M23 45h18M23 50h18M23 55h12" stroke="#38bdf8" stroke-width="4" stroke-linecap="round"/></symbol>
  <symbol id="owl-refresh" viewBox="0 0 64 64"><use href="#owl-base"/><path d="M42 49a10 10 0 1 1-3-7M42 41v8h-8" fill="none" stroke="#38bdf8" stroke-width="4" stroke-linecap="round" stroke-linejoin="round"/></symbol>
  <symbol id="owl-mobile" viewBox="0 0 64 64"><use href="#owl-base"/><rect x="25" y="41" width="14" height="19" rx="3" fill="#fff"/><circle cx="32" cy="56" r="1.5" fill="#07111f"/><path d="M29 45h6" stroke="#38bdf8" stroke-width="2" stroke-linecap="round"/></symbol>
</svg>
